<svg xmlns="http://www.w3.org/2000/svg" width="26" height="26"><path data-name="Composite Path" d="M20.507 8.55l-2.049-5.07a2.271 2.271 0 0 1-1.337.61l2.048 5.07a.723.723 0 0 0 .956.41.8.8 0 0 0 .382-1.02zM7.541 3.48L5.493 8.55a.8.8 0 0 0 .382 1.02.723.723 0 0 0 .956-.41l2.048-5.07a2.277 2.277 0 0 1-1.338-.61zm17.435 4.39h-3.747l.12.3a1.813 1.813 0 0 1 .016 1.33 1.667 1.667 0 0 1-.879.96 1.617 1.617 0 0 1-.648.14 1.634 1.634 0 0 1-1.511-1.06l-.676-1.67h-9.3l-.676 1.67a1.634 1.634 0 0 1-1.512 1.06 1.613 1.613 0 0 1-.647-.14 1.791 1.791 0 0 1-.864-2.29l.121-.3H0v3.76h26V7.87h-1.024zm-6.5-6.23a1.552 1.552 0 1 0-1.548 1.65 1.6 1.6 0 0 0 1.547-1.65zm-7.853 0a1.552 1.552 0 1 0-1.549 1.65 1.6 1.6 0 0 0 1.548-1.65zM1.695 12.93L4.022 26H21.98l2.327-13.07H1.694zm18.89 10.23H5.416a.581.581 0 0 1 0-1.16h15.168a.581.581 0 0 1 0 1.16zm.459-3.12H4.957a.581.581 0 0 1 0-1.16h16.086a.581.581 0 0 1 0 1.16zm.466-3.14H4.491a.566.566 0 0 1 0-1.13h17.018a.566.566 0 0 1 0 1.13z" fill="#dedede" fill-rule="evenodd"/></svg>