<svg xmlns="http://www.w3.org/2000/svg" width="26" height="26" viewBox="0 0 26 26">
  <metadata><?xpacket begin="﻿" id="W5M0MpCehiHzreSzNTczkc9d"?>
<x:xmpmeta xmlns:x="adobe:ns:meta/" x:xmptk="Adobe XMP Core 5.6-c142 79.160924, 2017/07/13-01:06:39        ">
   <rdf:RDF xmlns:rdf="http://www.w3.org/1999/02/22-rdf-syntax-ns#">
      <rdf:Description rdf:about=""/>
   </rdf:RDF>
</x:xmpmeta>
                                                                                                    
                                                                                                    
                                                                                                    
                                                                                                    
                                                                                                    
                                                                                                    
                                                                                                    
                                                                                                    
                                                                                                    
                                                                                                    
                                                                                                    
                                                                                                    
                                                                                                    
                                                                                                    
                                                                                                    
                                                                                                    
                                                                                                    
                                                                                                    
                                                                                                    
                                                                                                    
                           
<?xpacket end="w"?></metadata>
<defs>
    <style>
      .cls-1 {
        fill: #dedede;
        fill-rule: evenodd;
      }
    </style>
  </defs>
  <path id="Composite_Path" data-name="Composite Path" class="cls-1" d="M818.507,1420.55l-2.049-5.07a2.271,2.271,0,0,1-1.337.61l2.048,5.07a0.723,0.723,0,0,0,.956.41A0.8,0.8,0,0,0,818.507,1420.55Zm-12.966-5.07-2.048,5.07a0.8,0.8,0,0,0,.382,1.02,0.723,0.723,0,0,0,.956-0.41l2.048-5.07A2.277,2.277,0,0,1,805.541,1415.48Zm17.435,4.39h-3.747l0.12,0.3a1.813,1.813,0,0,1,.016,1.33,1.667,1.667,0,0,1-.879.96,1.617,1.617,0,0,1-.648.14,1.634,1.634,0,0,1-1.511-1.06l-0.676-1.67h-9.3l-0.676,1.67a1.634,1.634,0,0,1-1.512,1.06,1.613,1.613,0,0,1-.647-0.14,1.791,1.791,0,0,1-.864-2.29l0.121-.3H798v3.76h26v-3.76h-1.024Zm-6.5-6.23a1.552,1.552,0,1,0-1.548,1.65A1.6,1.6,0,0,0,816.475,1413.64Zm-7.853,0a1.552,1.552,0,1,0-1.549,1.65A1.6,1.6,0,0,0,808.622,1413.64Zm-8.928,11.29,2.327,13.07h17.958l2.327-13.07H799.694Zm18.89,10.23H803.416a0.581,0.581,0,0,1,0-1.16h15.168A0.581,0.581,0,0,1,818.584,1435.16Zm0.459-3.12H802.957a0.581,0.581,0,0,1,0-1.16h16.086A0.581,0.581,0,0,1,819.043,1432.04Zm0.466-3.14H802.491a0.566,0.566,0,0,1,0-1.13h17.018A0.566,0.566,0,0,1,819.509,1428.9Z" transform="translate(-798 -1412)"/>
</svg>
